<svg xmlns="http://www.w3.org/2000/svg" xmlns:xlink="http://www.w3.org/1999/xlink" viewBox="0 0 30.9 30.05"><defs><style>.cls-1{fill:url(#degradado_silla_amarilla);}.cls-2{fill:#1d1d1b;}.cls-3{fill:#fff;}</style><linearGradient id="degradado_silla_amarilla" x1="15.33" x2="15.33" y2="28.59" gradientUnits="userSpaceOnUse"><stop offset="0" stop-color="#f9b233"/><stop offset="0.41" stop-color="#f9b033"/><stop offset="0.56" stop-color="#f8a931"/><stop offset="0.67" stop-color="#f69e2e"/><stop offset="0.76" stop-color="#f38d2a"/><stop offset="0.83" stop-color="#f07725"/><stop offset="0.89" stop-color="#eb5c1e"/><stop offset="0.92" stop-color="#e94e1b"/></linearGradient></defs><g id="Capa_2" data-name="Capa 2"><g id="Capa_5" data-name="Capa 5"><rect class="cls-1" x="1.04" width="28.59" height="28.59" rx="2.61"/><rect class="cls-2" x="28.86" y="7.99" width="2.03" height="22.06" rx="1.02"/><rect class="cls-2" x="0.02" y="7.99" width="2.03" height="22.06" rx="1.02"/><rect class="cls-2" x="14.31" y="13.47" width="2.27" height="30.9" rx="1.13" transform="translate(44.37 13.47) rotate(90)"/><rect class="cls-2" x="13.78" y="16.01" width="3.1" height="22.06" rx="1.55" transform="translate(42.38 11.71) rotate(90)"/><path class="cls-3" d="M6.12,18.83C9,16.3,12,14.1,12,11.71c0-1.27-.55-2.14-2-2.14S8,10.51,7.94,11.88H6.11A3.69,3.69,0,0,1,10,8c2.47,0,3.88,1.49,3.88,3.68,0,2.95-3,5.21-5,7h5.29v1.58H6.12Z"/><path class="cls-3" d="M20.26,8c3.41,0,4.34,2.68,4.34,6.15s-.93,6.22-4.34,6.22-4.34-2.68-4.34-6.22S16.85,8,20.26,8Zm0,1.74c-2.22,0-2.47,2.14-2.47,4.41s.25,4.48,2.47,4.48,2.47-2.09,2.47-4.48S22.48,9.72,20.26,9.72Z"/></g></g></svg>