<svg xmlns="http://www.w3.org/2000/svg" xmlns:xlink="http://www.w3.org/1999/xlink" viewBox="0 0 30.9 30.05"><defs><style>.cls-1{fill:url(#degradado_silla_amarilla);}.cls-2{fill:#1d1d1b;}.cls-3{fill:#fff;}</style><linearGradient id="degradado_silla_amarilla" x1="15.33" x2="15.33" y2="28.59" gradientUnits="userSpaceOnUse"><stop offset="0" stop-color="#f9b233"/><stop offset="0.41" stop-color="#f9b033"/><stop offset="0.56" stop-color="#f8a931"/><stop offset="0.67" stop-color="#f69e2e"/><stop offset="0.76" stop-color="#f38d2a"/><stop offset="0.83" stop-color="#f07725"/><stop offset="0.89" stop-color="#eb5c1e"/><stop offset="0.92" stop-color="#e94e1b"/></linearGradient></defs><g id="Capa_2" data-name="Capa 2"><g id="Capa_5" data-name="Capa 5"><rect class="cls-1" x="1.04" width="28.59" height="28.59" rx="2.61"/><rect class="cls-2" x="28.86" y="7.99" width="2.03" height="22.06" rx="1.02"/><rect class="cls-2" x="0.02" y="7.99" width="2.03" height="22.06" rx="1.02"/><rect class="cls-2" x="14.31" y="13.47" width="2.27" height="30.9" rx="1.13" transform="translate(44.37 13.47) rotate(90)"/><rect class="cls-2" x="13.78" y="16.01" width="3.1" height="22.06" rx="1.55" transform="translate(42.38 11.71) rotate(90)"/><path class="cls-3" d="M6.51,18.83c2.88-2.53,5.9-4.73,5.9-7.12,0-1.27-.55-2.14-2-2.14s-2,.94-2.1,2.31H6.5A3.7,3.7,0,0,1,10.42,8c2.48,0,3.88,1.49,3.88,3.68,0,2.95-3,5.21-5,7h5.29v1.58H6.51Z"/><path class="cls-3" d="M20.27,7.92c2.42,0,3.74,1.4,3.74,3.17a2.86,2.86,0,0,1-1.87,2.76v.06A3,3,0,0,1,24.23,17c0,1.94-1.37,3.41-3.91,3.41-2.31,0-4.09-1.21-4.21-3.59H18a2.15,2.15,0,0,0,2.35,2,1.91,1.91,0,0,0,2.12-2c0-1.61-1-2.16-3-2.16H19V13.13h.45c1.72,0,2.77-.52,2.77-1.82,0-1.05-.68-1.76-2-1.76a1.9,1.9,0,0,0-2.07,1.66H16.28C16.41,9.1,18.05,7.92,20.27,7.92Z"/></g></g></svg>