<svg xmlns="http://www.w3.org/2000/svg" xmlns:xlink="http://www.w3.org/1999/xlink" viewBox="0 0 30.9 30.05"><defs><style>.cls-1{fill:url(#degradado_silla_amarilla);}.cls-2{fill:#1d1d1b;}.cls-3{fill:#fff;}</style><linearGradient id="degradado_silla_amarilla" x1="15.33" x2="15.33" y2="28.59" gradientUnits="userSpaceOnUse"><stop offset="0" stop-color="#f9b233"/><stop offset="0.41" stop-color="#f9b033"/><stop offset="0.56" stop-color="#f8a931"/><stop offset="0.67" stop-color="#f69e2e"/><stop offset="0.76" stop-color="#f38d2a"/><stop offset="0.83" stop-color="#f07725"/><stop offset="0.89" stop-color="#eb5c1e"/><stop offset="0.92" stop-color="#e94e1b"/></linearGradient></defs><g id="Capa_2" data-name="Capa 2"><g id="Capa_5" data-name="Capa 5"><rect class="cls-1" x="1.04" width="28.59" height="28.59" rx="2.61"/><rect class="cls-2" x="28.86" y="7.99" width="2.03" height="22.06" rx="1.02"/><rect class="cls-2" x="0.02" y="7.99" width="2.03" height="22.06" rx="1.02"/><rect class="cls-2" x="14.31" y="13.47" width="2.27" height="30.9" rx="1.13" transform="translate(44.37 13.47) rotate(90)"/><rect class="cls-2" x="13.78" y="16.01" width="3.1" height="22.06" rx="1.55" transform="translate(42.38 11.71) rotate(90)"/><path class="cls-3" d="M6.15,18.83c2.87-2.53,5.9-4.73,5.9-7.12,0-1.27-.56-2.14-2-2.14S8,10.51,8,11.88H6.13A3.7,3.7,0,0,1,10.06,8c2.47,0,3.87,1.49,3.87,3.68,0,2.95-3,5.21-5,7h5.3v1.58H6.15Z"/><path class="cls-3" d="M16.26,11.28c0-1.78,1.32-3.3,4-3.3s4,1.54,4,3.3A3,3,0,0,1,22.54,14a3.08,3.08,0,0,1,2.06,3c0,2.23-1.81,3.66-4.33,3.66S16,19.25,16,17a3.07,3.07,0,0,1,2-3A2.9,2.9,0,0,1,16.26,11.28ZM17.78,17a2.19,2.19,0,0,0,2.49,2.13A2.17,2.17,0,0,0,22.72,17c0-1.37-1-2.11-2.45-2.11S17.78,15.54,17.78,17Zm4.68-5.45c0-1.25-.85-1.94-2.19-1.94a1.9,1.9,0,0,0-2.17,2,2,2,0,0,0,2.17,1.88A2,2,0,0,0,22.46,11.51Z"/></g></g></svg>