<svg xmlns="http://www.w3.org/2000/svg" xmlns:xlink="http://www.w3.org/1999/xlink" viewBox="0 0 30.9 30.05"><defs><style>.cls-1{fill:url(#degradado_silla_amarilla);}.cls-2{fill:#1d1d1b;}.cls-3{fill:#fff;}</style><linearGradient id="degradado_silla_amarilla" x1="15.33" x2="15.33" y2="28.59" gradientUnits="userSpaceOnUse"><stop offset="0" stop-color="#f9b233"/><stop offset="0.41" stop-color="#f9b033"/><stop offset="0.56" stop-color="#f8a931"/><stop offset="0.67" stop-color="#f69e2e"/><stop offset="0.76" stop-color="#f38d2a"/><stop offset="0.83" stop-color="#f07725"/><stop offset="0.89" stop-color="#eb5c1e"/><stop offset="0.92" stop-color="#e94e1b"/></linearGradient></defs><g id="Capa_2" data-name="Capa 2"><g id="Capa_5" data-name="Capa 5"><rect class="cls-1" x="1.04" width="28.59" height="28.59" rx="2.61"/><rect class="cls-2" x="28.86" y="7.99" width="2.03" height="22.06" rx="1.02"/><rect class="cls-2" x="0.02" y="7.99" width="2.03" height="22.06" rx="1.02"/><rect class="cls-2" x="14.31" y="13.47" width="2.27" height="30.9" rx="1.13" transform="translate(44.37 13.47) rotate(90)"/><rect class="cls-2" x="13.78" y="16.01" width="3.1" height="22.06" rx="1.55" transform="translate(42.38 11.71) rotate(90)"/><path class="cls-3" d="M10.07,8c3.41,0,4.35,2.68,4.35,6.15s-.94,6.22-4.35,6.22-4.34-2.68-4.34-6.22S6.66,8,10.07,8Zm0,1.74c-2.22,0-2.47,2.14-2.47,4.41s.25,4.48,2.47,4.48,2.48-2.09,2.48-4.48S12.3,9.72,10.07,9.72Z"/><path class="cls-3" d="M23,11a1.82,1.82,0,0,0-2-1.53c-1.72,0-2.61,1.17-2.66,4.36a3.54,3.54,0,0,1,3.08-1.54c2.19,0,3.74,1.47,3.74,4a3.76,3.76,0,0,1-4,4.06c-3.55,0-4.46-2.49-4.46-6.36S18,7.9,21,7.9A3.5,3.5,0,0,1,24.75,11Zm-4.46,5.27A2.31,2.31,0,0,0,21,18.79a2.18,2.18,0,0,0,2.27-2.39A2.21,2.21,0,0,0,21,13.91,2.28,2.28,0,0,0,18.53,16.29Z"/></g></g></svg>