<svg xmlns="http://www.w3.org/2000/svg" xmlns:xlink="http://www.w3.org/1999/xlink" viewBox="0 0 30.9 30.05"><defs><style>.cls-1{fill:url(#degradado_silla_amarilla);}.cls-2{fill:#1d1d1b;}.cls-3{fill:#fff;}</style><linearGradient id="degradado_silla_amarilla" x1="15.33" x2="15.33" y2="28.59" gradientUnits="userSpaceOnUse"><stop offset="0" stop-color="#f9b233"/><stop offset="0.41" stop-color="#f9b033"/><stop offset="0.56" stop-color="#f8a931"/><stop offset="0.67" stop-color="#f69e2e"/><stop offset="0.76" stop-color="#f38d2a"/><stop offset="0.83" stop-color="#f07725"/><stop offset="0.89" stop-color="#eb5c1e"/><stop offset="0.92" stop-color="#e94e1b"/></linearGradient></defs><g id="Capa_2" data-name="Capa 2"><g id="Capa_5" data-name="Capa 5"><rect class="cls-1" x="1.04" width="28.59" height="28.59" rx="2.61"/><rect class="cls-2" x="28.86" y="7.99" width="2.03" height="22.06" rx="1.02"/><rect class="cls-2" x="0.02" y="7.99" width="2.03" height="22.06" rx="1.02"/><rect class="cls-2" x="14.31" y="13.47" width="2.27" height="30.9" rx="1.13" transform="translate(44.37 13.47) rotate(90)"/><rect class="cls-2" x="13.78" y="16.01" width="3.1" height="22.06" rx="1.55" transform="translate(42.38 11.71) rotate(90)"/><path class="cls-3" d="M10.77,7.92c2.42,0,3.74,1.4,3.74,3.17a2.86,2.86,0,0,1-1.87,2.76v.06A3,3,0,0,1,14.73,17c0,1.94-1.37,3.41-3.91,3.41-2.31,0-4.1-1.2-4.21-3.59H8.44a2.16,2.16,0,0,0,2.36,2,1.91,1.91,0,0,0,2.12-2c0-1.61-1-2.16-3-2.16H9.46V13.13h.46c1.72,0,2.77-.52,2.77-1.82,0-1.05-.69-1.76-2-1.76a1.9,1.9,0,0,0-2.07,1.66H6.77C6.91,9.1,8.55,7.92,10.77,7.92Z"/><path class="cls-3" d="M24.45,8.25V9.67L19.81,20.38H17.89L22.58,9.87H16.4V8.25Z"/></g></g></svg>