<svg xmlns="http://www.w3.org/2000/svg" xmlns:xlink="http://www.w3.org/1999/xlink" viewBox="0 0 30.9 30.05"><defs><style>.cls-1{fill:url(#degradado_silla_amarilla);}.cls-2{fill:#1d1d1b;}.cls-3{fill:#fff;}</style><linearGradient id="degradado_silla_amarilla" x1="15.33" x2="15.33" y2="28.59" gradientUnits="userSpaceOnUse"><stop offset="0" stop-color="#f9b233"/><stop offset="0.41" stop-color="#f9b033"/><stop offset="0.56" stop-color="#f8a931"/><stop offset="0.67" stop-color="#f69e2e"/><stop offset="0.76" stop-color="#f38d2a"/><stop offset="0.83" stop-color="#f07725"/><stop offset="0.89" stop-color="#eb5c1e"/><stop offset="0.92" stop-color="#e94e1b"/></linearGradient></defs><g id="Capa_2" data-name="Capa 2"><g id="Capa_5" data-name="Capa 5"><rect class="cls-1" x="1.04" width="28.59" height="28.59" rx="2.61"/><rect class="cls-2" x="28.86" y="7.99" width="2.03" height="22.06" rx="1.02"/><rect class="cls-2" x="0.02" y="7.99" width="2.03" height="22.06" rx="1.02"/><rect class="cls-2" x="14.31" y="13.47" width="2.27" height="30.9" rx="1.13" transform="translate(44.37 13.47) rotate(90)"/><rect class="cls-2" x="13.78" y="16.01" width="3.1" height="22.06" rx="1.55" transform="translate(42.38 11.71) rotate(90)"/><path class="cls-3" d="M11.55,17.84H5.5V16.4l5.62-8h2.3v7.84H15v1.65H13.42v2.54H11.55Zm.09-1.65v-5.9l-3.95,5.9Z"/><path class="cls-3" d="M18.92,17.07a2,2,0,0,0,2.21,1.71c1.52,0,2.29-1,2.29-4.13a3.32,3.32,0,0,1-2.71,1.19,3.64,3.64,0,0,1-3.87-3.9,3.73,3.73,0,0,1,4-4c3.14,0,4.19,2.15,4.19,6.15S24.2,20.36,21,20.36a3.49,3.49,0,0,1-3.84-3.29Zm4.28-5.13a2.27,2.27,0,1,0-4.54,0,2.17,2.17,0,0,0,2.39,2.34A2.07,2.07,0,0,0,23.2,11.94Z"/></g></g></svg>