<svg xmlns="http://www.w3.org/2000/svg" xmlns:xlink="http://www.w3.org/1999/xlink" viewBox="0 0 30.9 30.05"><defs><style>.cls-1{fill:url(#degradado_silla_amarilla);}.cls-2{fill:#1d1d1b;}.cls-3{fill:#fff;}</style><linearGradient id="degradado_silla_amarilla" x1="15.33" x2="15.33" y2="28.59" gradientUnits="userSpaceOnUse"><stop offset="0" stop-color="#f9b233"/><stop offset="0.41" stop-color="#f9b033"/><stop offset="0.56" stop-color="#f8a931"/><stop offset="0.67" stop-color="#f69e2e"/><stop offset="0.76" stop-color="#f38d2a"/><stop offset="0.83" stop-color="#f07725"/><stop offset="0.89" stop-color="#eb5c1e"/><stop offset="0.92" stop-color="#e94e1b"/></linearGradient></defs><g id="Capa_2" data-name="Capa 2"><g id="Capa_5" data-name="Capa 5"><rect class="cls-1" x="1.04" width="28.59" height="28.59" rx="2.61"/><rect class="cls-2" x="28.86" y="7.99" width="2.03" height="22.06" rx="1.02"/><rect class="cls-2" x="0.02" y="7.99" width="2.03" height="22.06" rx="1.02"/><rect class="cls-2" x="14.31" y="13.47" width="2.27" height="30.9" rx="1.13" transform="translate(44.37 13.47) rotate(90)"/><rect class="cls-2" x="13.78" y="16.01" width="3.1" height="22.06" rx="1.55" transform="translate(42.38 11.71) rotate(90)"/><path class="cls-3" d="M13.61,8.17V9.84H8v3.32a3.27,3.27,0,0,1,2.52-1.1c3,0,3.91,2.22,3.91,4.06a3.91,3.91,0,0,1-4.21,4.26c-2.5,0-4-1.39-4.24-3.29H7.84a2.27,2.27,0,0,0,2.41,1.7c1.64,0,2.37-1.12,2.37-2.62a2.17,2.17,0,0,0-2.37-2.49A2.2,2.2,0,0,0,8.06,15.2H6.26v-7Z"/><path class="cls-3" d="M20.78,8c3.41,0,4.34,2.68,4.34,6.15s-.93,6.22-4.34,6.22-4.35-2.68-4.35-6.22S17.37,8,20.78,8Zm0,1.74c-2.22,0-2.47,2.14-2.47,4.41s.25,4.48,2.47,4.48,2.47-2.09,2.47-4.48S23,9.72,20.78,9.72Z"/></g></g></svg>