<svg xmlns="http://www.w3.org/2000/svg" xmlns:xlink="http://www.w3.org/1999/xlink" viewBox="0 0 30.9 30.05"><defs><style>.cls-1{fill:url(#degradado_silla_amarilla);}.cls-2{fill:#1d1d1b;}.cls-3{fill:#fff;}</style><linearGradient id="degradado_silla_amarilla" x1="15.33" x2="15.33" y2="28.59" gradientUnits="userSpaceOnUse"><stop offset="0" stop-color="#f9b233"/><stop offset="0.41" stop-color="#f9b033"/><stop offset="0.56" stop-color="#f8a931"/><stop offset="0.67" stop-color="#f69e2e"/><stop offset="0.76" stop-color="#f38d2a"/><stop offset="0.83" stop-color="#f07725"/><stop offset="0.89" stop-color="#eb5c1e"/><stop offset="0.92" stop-color="#e94e1b"/></linearGradient></defs><g id="Capa_2" data-name="Capa 2"><g id="Capa_5" data-name="Capa 5"><rect class="cls-1" x="1.04" width="28.59" height="28.59" rx="2.61"/><rect class="cls-2" x="28.86" y="7.99" width="2.03" height="22.06" rx="1.02"/><rect class="cls-2" x="0.02" y="7.99" width="2.03" height="22.06" rx="1.02"/><rect class="cls-2" x="14.31" y="13.47" width="2.27" height="30.9" rx="1.13" transform="translate(44.37 13.47) rotate(90)"/><rect class="cls-2" x="13.78" y="16.01" width="3.1" height="22.06" rx="1.55" transform="translate(42.38 11.71) rotate(90)"/><path class="cls-3" d="M13.56,8.17V9.84H8v3.32a3.27,3.27,0,0,1,2.52-1.1c3,0,3.91,2.22,3.91,4.06a3.91,3.91,0,0,1-4.21,4.26c-2.5,0-4-1.39-4.24-3.29H7.79a2.27,2.27,0,0,0,2.41,1.7c1.64,0,2.37-1.12,2.37-2.62a2.17,2.17,0,0,0-2.37-2.49A2.2,2.2,0,0,0,8,15.2H6.21v-7Z"/><path class="cls-3" d="M22.2,17.84H16.15V16.4l5.61-8h2.31v7.84h1.55v1.65H24.07v2.54H22.2Zm.08-1.65v-5.9l-3.94,5.9Z"/></g></g></svg>