<svg xmlns="http://www.w3.org/2000/svg" viewBox="0 0 1317.44 132.01"><g id="Capa_2" data-name="Capa 2"><g id="Capa_1-2" data-name="Capa 1"><g id="Capa_2-2" data-name="Capa 2-2"><g id="Capa_25" data-name="Capa 25"><path d="M112.68,48.58a44.45,44.45,0,0,0-23.8-11.29C72.05,35.21,56.41,37.54,44,50.66a26.14,26.14,0,0,0,.09,37l0,0c.19.19.38.38.58.56C55.53,98.65,69,102,83.69,101.09a45.92,45.92,0,0,0,29.14-11.91l25.22,21.69c-4.68,3.34-8.68,6.74-13.27,9.41C94.54,138.17,49.69,135,22.43,113,9,102.22.8,88.27.05,70.87a53.42,53.42,0,0,1,16.56-41C31.21,15.27,49,8.41,69.17,6.28a91,91,0,0,1,65,17.69,22.18,22.18,0,0,1,2.09,1.79c.45.5.87,1,1.27,1.56Z"/><path d="M869.34,130.87V19.06h88.52V46.18H902.42a123.58,123.58,0,0,0,.19,12.91c0,.94,2.57,2.09,4,2.19,10.91.19,21.82.1,32.73.1h5.4V88.65H903.2a8.32,8.32,0,0,0-.65,1.46c-1.59,13.82-1.59,13.82,12.24,13.82h43v26.74Z"/><path d="M750.93,130.67V26.87c.92-.14,1.85-.24,2.78-.29,15.79.21,31.66-.39,47.34.86,18.57,1.48,36,6.9,48,22.63a46.92,46.92,0,0,1-17.46,71.42,101.28,101.28,0,0,1-41.76,9.4c-11.8.29-23.63.13-35.46,0A18.88,18.88,0,0,1,750.93,130.67ZM782.85,105c12.51.75,23.77-.27,33.7-7.15,13.83-9.62,15.35-26.64,3-37.21-10-8.6-22.43-9-34.84-8.35-.66,0-1.83,1.63-1.83,2.48V105Z"/><path d="M262.86,79.47c-.36,19.88-11.33,33.18-27.49,42.65a73.27,73.27,0,0,1-81-5.15c-28-21.4-25.76-59.51,4.84-79.66A72.72,72.72,0,0,1,247.1,44,46.68,46.68,0,0,1,262.86,79.47Zm-61,26.51c8.14.23,17.31-4.17,24.8-12.12a22.29,22.29,0,0,0,1.52-28.32c-14-18.65-44.26-18.78-58.52-.36A22.06,22.06,0,0,0,168.84,91c7.33,10.14,17.55,14.87,33,15Z"/><path d="M565.44,131.87a66.48,66.48,0,0,1-51-23.88,44.93,44.93,0,0,1,2.08-60.66,67.49,67.49,0,0,1,46-21.25c21.76-1.4,40.57,4.9,55.9,20.59,19.84,20.27,17.79,51.16-4.36,68.83C600.32,126.52,585.13,131.87,565.44,131.87Zm3.17-26c7.95.63,15.56-2.73,22.53-7.82,13.25-9.66,14-26.15,1.77-37.06a37.87,37.87,0,0,0-50-.29c-10.43,9.13-11.87,23.4-3.26,32.72A36.29,36.29,0,0,0,568.61,105.87Z"/><path d="M714.58,93.78l28.74,37.29c-8.72,0-16.83-.63-24.82.17s-13.33-2.4-18.23-8.58c-7.91-10-16.58-19.29-25-28.86-.67-.77-1.5-1.4-3-2.78v39.63H642.6V26.59c6.25,0,12.37-.16,18.5,0,13.76.46,27.59.5,41.3,1.84,11.66,1.15,20.85,7.63,27.86,17.06,10.43,14.27,4.53,37.36-11.61,46.1ZM672.34,77.09a242.51,242.51,0,0,0,24.36-2.52,10.43,10.43,0,0,0,8-11.08,10.27,10.27,0,0,0-8.34-9.7c-7.78-1.23-15.69-1.54-23.86-2.27Z"/><path d="M303.55,76.65v54.22h-30V25.65c3.15,1,6.25,1.19,8.34,2.76,21.07,16.14,42,32.49,62.93,48.78,1.44,1.13,2.9,2.24,5.11,3.9V26.59h30.39V131.93c-3.3-1.17-6.57-1.51-8.78-3.22-21.42-16.45-42.68-33.14-64-49.74A44.07,44.07,0,0,0,303.55,76.65Z"/><path d="M506.67,43.87l-20.86,18c-10.43-9-22.57-11.12-35.79-9.47s-25.45,11.08-27.77,22.24c-2.08,10.23,2.57,20.23,13.15,25.75,16.24,8.34,32.28,8.34,47.82-2.09,1-.71,3.24-1.27,3.92-.71,6.53,5.26,12.87,10.81,19.57,16.54a61,61,0,0,1-25.8,14.5c-24.91,6.65-48.41,3.8-69.71-11.43-24.67-17.81-26.93-51-5.09-72.11,13.14-12.66,29.2-18.18,47.06-19.1a74.93,74.93,0,0,1,51.14,15.62C505,42.24,505.67,42.87,506.67,43.87Z"/><path d="M1042.71,118.58H1003l-5.4,12.51h-31L1016.1,23.21h13.41L1079.05,131h-31Zm-9-20.67L1022.8,72.69l-11,25.22Z"/><path d="M1089.67,24.51h40.21c21.92,0,40.3,16.54,40.3,37.35s-18,37.74-40.3,37.74H1118v31.27h-28.36Zm53.16,37.54c0-6.46-5.42-11.37-12.95-11.37H1118v23h12c7.47,0,12.83-5.16,12.83-11.63Z"/><path d="M1182.11,24.51h40.21c21.92,0,40.22,16.5,40.22,37.31s-17.9,37.78-40.22,37.78h-12v31.27h-28.26Zm53.16,37.54c0-6.46-5.42-11.37-13-11.37h-12v23h12c7.59,0,13-5.11,13-11.58Z"/></g></g><path d="M1294.11,46.66a23.33,23.33,0,1,1,23.33-23.33h0A23.34,23.34,0,0,1,1294.11,46.66Zm0-43.13a19.81,19.81,0,1,0,19.81,19.81A19.81,19.81,0,0,0,1294.11,3.53Z"/><path d="M1294.52,12.17c5.06,0,7.54,2.92,7.54,6.38a6,6,0,0,1-4.94,6.09l5.27,8.83h-4.16l-4.9-8.52h-2.67v8.52h-3.49V12.17Zm0,2.85h-3.86v7.14h3.86c2.73,0,4-1.5,4-3.61s-1.27-3.53-4-3.53Z"/></g></g></svg>