<svg xmlns="http://www.w3.org/2000/svg" xmlns:xlink="http://www.w3.org/1999/xlink" viewBox="0 0 30.9 36.86"><defs><style>.cls-1{fill:url(#Degradado_sin_nombre_374);}.cls-2{fill:#1d1d1b;}.cls-3{fill:#414042;}.cls-4{fill:#dcdbd9;}.cls-5{fill:#dedcdb;}.cls-6{fill:#251e21;}.cls-7{fill:#46371e;}.cls-8{fill:#3e331b;}.cls-9{fill:#cbac85;}.cls-10{fill:#bb9b71;}.cls-11{fill:#d0af8d;}.cls-12{fill:#b29170;}.cls-13{fill:#614e38;}.cls-14{fill:#7c7871;}.cls-15{fill:#7c746c;}.cls-16{fill:#64615e;}.cls-17{fill:#0d2533;}.cls-18{fill:#2e4e59;}.cls-19{fill:#c5a987;}.cls-20{fill:#9d8269;}</style><linearGradient id="Degradado_sin_nombre_374" x1="15.33" y1="6.81" x2="15.33" y2="35.4" gradientUnits="userSpaceOnUse"><stop offset="0" stop-color="#9f9f9f"/><stop offset="0.21" stop-color="#999"/><stop offset="0.49" stop-color="#898988"/><stop offset="0.81" stop-color="#6e6e6d"/><stop offset="1" stop-color="#5a5a59"/></linearGradient></defs><g id="Capa_2" data-name="Capa 2"><g id="Capa_9" data-name="Capa 9"><rect class="cls-1" x="1.04" y="6.81" width="28.59" height="28.59" rx="2.61"/><rect class="cls-2" x="28.86" y="14.8" width="2.03" height="22.06" rx="1.02"/><rect class="cls-2" x="0.02" y="14.8" width="2.03" height="22.06" rx="1.02"/><rect class="cls-2" x="14.31" y="20.28" width="2.27" height="30.9" rx="1.13" transform="translate(51.17 20.28) rotate(90)"/><rect class="cls-2" x="13.78" y="22.82" width="3.1" height="22.06" rx="1.55" transform="translate(49.18 18.51) rotate(90)"/><path class="cls-3" d="M22.57,14.52c-.09-.26-.1-.38-.16-.52a3.48,3.48,0,0,0-.21-.45c-.09-.2-.1-.14-.21-.27s-.14-.13-.19-.31c-.4-1.29-.81-2.58-1.21-3.87a2,2,0,0,0-.95-1.32,4.59,4.59,0,0,0-1.24-.6,1.21,1.21,0,0,0-1.21.23,1.73,1.73,0,0,0-.7,1.26c0,.12,0,.24,0,.35a1.15,1.15,0,0,1,0,.32,2.67,2.67,0,0,0,0,.4.69.69,0,0,1,0-.4c0-.11,0-.21,0-.32a.41.41,0,0,0-.09-.23c-.14,1.23,0,2.48-.07,3.72-.05.82,0,.81-.86.84a.49.49,0,0,1-.6-.41c-.24-.78-.55-1.54-.83-2.32a1,1,0,0,1-.27-.38,1.46,1.46,0,0,0-1.06-.75,3.61,3.61,0,0,0-3,.66,3.17,3.17,0,0,0-.47,1.33c0,.55-.08,1.11-.1,1.67,0,.25-.07.14-.12.23s-.05.21-.11.37a1.72,1.72,0,0,0,0,.34c0,.24,0,.14,0,.79a13.92,13.92,0,0,0,.29,4,13.43,13.43,0,0,0,.45,1.4c.06.16.1.34.3.4a6.64,6.64,0,0,0,2.22-.14,12,12,0,0,1,3.05-.34c.06,0,0,0,0,0s.14-.26.14-.41a1.38,1.38,0,0,1,.11-.75,8.38,8.38,0,0,0,.76-1.6c.06.24-.33.5.08.7a.44.44,0,0,0,.3-.36,6.62,6.62,0,0,1,.59,1.49c0,.17,0,.35.21.46a11,11,0,0,0,2,.93c1,.21,2,.92,3.13.34h.09c.43-.12.31-.47.34-.77a8.34,8.34,0,0,1,0-1A11,11,0,0,0,22.57,14.52Zm-6.41.8a5.77,5.77,0,0,0-.08,1,9,9,0,0,1-.76-2.18c0-.22.11-.28.3-.27s.52-.08.55.28A5.53,5.53,0,0,1,16.16,15.32Z"/><path class="cls-3" d="M16.45,9c0,.11,0,.21,0,.32A1.15,1.15,0,0,0,16.45,9Z"/><path class="cls-4" d="M15.3,20.15a8,8,0,0,0-2.33.11,8.71,8.71,0,0,1-3.1.36.26.26,0,0,0-.21.28,6,6,0,0,0,.31,3,1.84,1.84,0,0,1,.23.72c0,.28,0,.4-.34.26A2.65,2.65,0,0,1,8.73,23.8c-.71-1.17-1.36-2.37-2-3.57a7.91,7.91,0,0,1-.52-1A3.93,3.93,0,0,1,6,17.91c-.06-.49-.14-1-.21-1.45a5,5,0,0,0-.27-1.62,1.64,1.64,0,0,1-.65.41,2.47,2.47,0,0,1-1.63-.1c-.27,0-.49-.3-.8-.19a22.93,22.93,0,0,0,.63,2.57c.22.9.48,1.8.72,2.69a4.89,4.89,0,0,1,.2.84,32,32,0,0,0,1.63,4.68c.2.49.16,1,.5,1.47,0,.17.06.11.14.26s.19.3.25.43.08.2.11.29c.16.26.19.11.33.33a8.14,8.14,0,0,0,2.22,2.8,4.09,4.09,0,0,0,1.75.59,14.72,14.72,0,0,0,2.38.21c.39,0,.45-.14.24-.43a20.15,20.15,0,0,1-1-2.22.75.75,0,0,1-.05-.51A14,14,0,0,0,12.74,26a1.45,1.45,0,0,1,.91-1.57c.41-.39.6-1,1.09-1.29.24-.21.62-.28.7-.67.05-.62,0-1.24,0-1.86A.52.52,0,0,0,15.3,20.15Z"/><path class="cls-5" d="M17.45,19.65a8.57,8.57,0,0,0,3,1.12c.19,0,.28.15.41.23a.7.7,0,0,0,.95,0c.21-.19.45-.12.69-.11s.4.18.41.46A6.52,6.52,0,0,1,22.67,23c-.12.48-.2,1-.34,1.44,0,.13-.11.31.07.38s.3-.07.37-.22c.2-.42.34-.86.51-1.29.37-1,.78-1.95,1.13-2.95a2,2,0,0,0,.26-.74.89.89,0,0,0,.19-.35s.05,0,.09-.13A4.36,4.36,0,0,0,25.18,18a31.59,31.59,0,0,1,.1-3.23c0-.1,0-.2.08-.27a.26.26,0,0,1,.27,0,2.85,2.85,0,0,0,2.09.57c.21-.06.37-.29.62-.22,0,.78-.23,1.52-.29,2.3s-.25,1.69-.39,2.53c-.15.41-.21.85-.38,1.25-.55,1.49-1.12,3-1.62,4.46a6.77,6.77,0,0,0-.29,1.26c-.27,0-.34.17-.37.38a6.38,6.38,0,0,1-.49,1.28A18.29,18.29,0,0,1,22,31.62a1.47,1.47,0,0,1-.32.29,4.5,4.5,0,0,1-1.62.41c-.33,0-.66.08-1,.09S18.65,32.2,19,32A2.39,2.39,0,0,0,19.88,30a2.12,2.12,0,0,1,.18-.73A2,2,0,0,0,20,28c-.09-.65-.17-1.3-.28-1.94a3.05,3.05,0,0,0-1-1.43c-.1-.12-.24-.21-.34-.34A3.6,3.6,0,0,0,17.34,23a.51.51,0,0,1-.29-.36c0-.9.17-1.8.25-2.7A.39.39,0,0,1,17.45,19.65Z"/><path class="cls-6" d="M18.47,24.24c.21.17.41.33.61.51A3,3,0,0,1,20,27a8.85,8.85,0,0,0,.18,1.13,9.85,9.85,0,0,1-.41,3.05c-.09.52-.24.61-.65.95,0,.1,0,.1-.09.14s-.05.14-.13.17a5.19,5.19,0,0,1-4.21.19,4,4,0,0,1-.47-.14c-.12,0-.11,0-.23-.11l-.1-.07a.39.39,0,0,1-.08-.09l-.06-.08s0,0-.06-.07a.17.17,0,0,1-.08-.1,6.42,6.42,0,0,1-.85-1.67,1.47,1.47,0,0,0-.29-.65.63.63,0,0,1-.14-.58,12,12,0,0,0,.24-3.28,1.4,1.4,0,0,1,1.1-1.5c.2.19.2.46.34.79-.08-1.11.61-1.47,1.41-1.73a1.52,1.52,0,0,1,1.07,0A4.92,4.92,0,0,1,18.47,24.24Z"/><path class="cls-6" d="M14,10.62a.61.61,0,0,1-.16-.09A2.75,2.75,0,0,0,10.15,10a.82.82,0,0,1-.49.16c.16-1.1.48-2.16.7-3.24a15.83,15.83,0,0,1,.28-1.83c.17-.12.3,0,.44.07.46.16.94.26,1.42.38a.72.72,0,0,1,.45.22c.14,1.08.24,2.17.43,3.24A14.43,14.43,0,0,0,14,10.62Z"/><path class="cls-6" d="M20.59,9.1a3.4,3.4,0,0,0-2.12-1.75,1.35,1.35,0,0,0-1.8,1,6,6,0,0,1-.14.74c-.08.25,0,.5-.17.74V8.79c0-1.23,0-2.46.05-3.69a.79.79,0,0,0-.25-.69,2.46,2.46,0,0,1,1.38-.62,5,5,0,0,1,1,0c.32,1,.65,1.89,1,2.85A3.77,3.77,0,0,0,20.25,8,1.41,1.41,0,0,1,20.59,9.1Z"/><path class="cls-7" d="M13,5.75a8.16,8.16,0,0,1-2.31-.67,7.5,7.5,0,0,0,0-1.95.75.75,0,0,1,.42-.73c.28-.15.55-.32.84-.45a1.11,1.11,0,0,1,1.19.23,1.67,1.67,0,0,1,.59,2.33A4.72,4.72,0,0,1,13,5.75Z"/><path class="cls-8" d="M17.53,3.92a7.2,7.2,0,0,0-1.37.49,10.59,10.59,0,0,1-.32-3.17c0-1.14,1-1.58,2-1,.1,1,0,1.93.05,2.89A.82.82,0,0,1,17.53,3.92Z"/><path class="cls-9" d="M27.78,15.16a2.71,2.71,0,0,1-2.22-.59,1.42,1.42,0,0,1,.5-1.28,5.49,5.49,0,0,0,1-1.24c.28.21.29-.07.32-.2A2.56,2.56,0,0,1,27.6,11c.06-.1.12-.26.29-.19s.09.2.07.3c-.07.45-.16.89-.26,1.38.32-.27.32-.7.76-1a6.9,6.9,0,0,1-.59,2.94C27.83,14.69,27.66,14.9,27.78,15.16Z"/><path class="cls-10" d="M5.55,14.84c0,.38-.34.4-.58.51A19.79,19.79,0,0,0,3.4,13c-.22-.34-.15-.41.25-.42s.14-.35.12-.52a8.85,8.85,0,0,0-.17-1c0-.17-.07-.38.09-.42s.2.19.24.33a10.63,10.63,0,0,0,.39,1.52c.14-.39-.05-.7-.06-1,0-.17-.07-.39.09-.43s.24.21.29.36c.13.45.24.91.38,1.46a1.64,1.64,0,0,0,.13-.7c0-.13,0-.31.2-.3s.24.14.27.28a.92.92,0,0,1,0,.33,6.26,6.26,0,0,1-.28,2.11C5.27,14.71,5.4,14.78,5.55,14.84Z"/><path class="cls-11" d="M3.65,12.53c-.15.07-.37,0-.18.35a3.87,3.87,0,0,0,.59.79A4,4,0,0,1,5,15.35a1.89,1.89,0,0,1-1.73-.14,2.17,2.17,0,0,1-.39-.56,9.3,9.3,0,0,1-.4-2.73c.33.21.4.59.67.9l-.06-.56c.19-.13.31.09.48.09A.22.22,0,0,1,3.65,12.53Z"/><path class="cls-12" d="M27,12.05c0,.42-.28.66-.5.93s-.38.43-.58.64a.77.77,0,0,0-.24.81c0,.12-.06.12-.14.14l-.2-.11a6,6,0,0,0-.13-1.89,2.45,2.45,0,0,1,0-.81c0-.14,0-.3.22-.31s.2.17.21.31a1.7,1.7,0,0,0,.15.63L26.23,11c0-.16.05-.42.26-.37s.14.29.11.46-.11.58-.19,1c.39-.34.28-.72.39-1s.09-.43.15-.64,0-.26.2-.22.15.17.13.31C27.19,11.05,27.1,11.55,27,12.05Z"/><path class="cls-13" d="M17.53,3.92a8,8,0,0,0,.18-2.71c0-.31-.07-.63.1-.93a1.66,1.66,0,0,1,.6,1.33,12.68,12.68,0,0,1,.15,2.22A2.57,2.57,0,0,1,17.53,3.92Z"/><path class="cls-10" d="M3.54,12.35c-.22.26-.31-.12-.48-.09-.05-.28-.12-.55-.17-.83,0-.1-.09-.24.07-.28a.27.27,0,0,1,.27.17A3.32,3.32,0,0,1,3.54,12.35Z"/><path class="cls-14" d="M27.78,15.16c-.41-.29-.1-.49.09-.71.13.17.45.09.47.39Z"/><path class="cls-15" d="M2.85,14.65c.31.06.32.34.39.56-.3.07-.51-.18-.77-.25C2.47,14.7,2.76,14.79,2.85,14.65Z"/><path class="cls-16" d="M6.2,19.23A1.26,1.26,0,0,1,6,17.91,3,3,0,0,1,6.2,19.23Z"/><path class="cls-17" d="M15.35,22.58a17.93,17.93,0,0,1,0-2.43,1.68,1.68,0,0,1,.18-1.41A4.11,4.11,0,0,0,16,17.65c.05-.2.14-.5.54-.48-.21.31-.39.59-.28.93a1.47,1.47,0,0,1,.21.86,10.86,10.86,0,0,1,0,2.42c-.07.44.16.8.15,1.21A1.1,1.1,0,0,1,15.35,22.58Z"/><path class="cls-18" d="M16.56,22.59a2.22,2.22,0,0,1-.21-1.54,15.32,15.32,0,0,0-.07-2.95.77.77,0,0,1,.25-.88,6.6,6.6,0,0,1,.8,2.14c0,.11,0,.23.12.29-.1,1.05-.21,2.09-.31,3.14A.45.45,0,0,1,16.56,22.59Z"/><path class="cls-19" d="M16.56,22.59l.58.2a2.73,2.73,0,0,1,1.33,1.45,10.56,10.56,0,0,1-1.24-.54,2.7,2.7,0,0,0-1.81-.22c-.31,0-.67.07-.77-.39.17-.25.49-.29.7-.51A5.43,5.43,0,0,0,16.56,22.59Z"/><path class="cls-20" d="M14.65,23.09c.18.29.51.28.77.39,0,0,0,.05-.07.06A1.45,1.45,0,0,0,14.11,25a2.83,2.83,0,0,1-.08.37,2.65,2.65,0,0,1-.34-1A3.29,3.29,0,0,1,14.65,23.09Z"/></g></g></svg>