<svg xmlns="http://www.w3.org/2000/svg" xmlns:xlink="http://www.w3.org/1999/xlink" viewBox="0 0 30.9 30.05"><defs><style>.cls-1{fill:url(#Degradado_sin_nombre_8);}.cls-2{fill:#1d1d1b;}.cls-3{fill:#fff;}</style><linearGradient id="Degradado_sin_nombre_8" x1="15.33" x2="15.33" y2="28.59" gradientUnits="userSpaceOnUse"><stop offset="0" stop-color="#3aaa35"/><stop offset="0.49" stop-color="#38a835"/><stop offset="0.66" stop-color="#33a135"/><stop offset="0.79" stop-color="#299634"/><stop offset="0.89" stop-color="#1a8534"/><stop offset="0.97" stop-color="#086f33"/><stop offset="1" stop-color="#063"/></linearGradient></defs><g id="Capa_2" data-name="Capa 2"><g id="Capa_5" data-name="Capa 5"><rect class="cls-1" x="1.04" width="28.59" height="28.59" rx="2.61"/><rect class="cls-2" x="28.86" y="7.99" width="2.03" height="22.06" rx="1.02"/><rect class="cls-2" x="0.02" y="7.99" width="2.03" height="22.06" rx="1.02"/><rect class="cls-2" x="14.31" y="13.47" width="2.27" height="30.9" rx="1.13" transform="translate(44.37 13.47) rotate(90)"/><rect class="cls-2" x="13.78" y="16.01" width="3.1" height="22.06" rx="1.55" transform="translate(42.38 11.71) rotate(90)"/><path class="cls-3" d="M10.11,8c3.41,0,4.34,2.68,4.34,6.15s-.93,6.22-4.34,6.22-4.35-2.68-4.35-6.22S6.7,8,10.11,8Zm0,1.74c-2.23,0-2.48,2.14-2.48,4.41s.25,4.48,2.48,4.48,2.47-2.09,2.47-4.48S12.33,9.72,10.11,9.72Z"/><path class="cls-3" d="M16.79,11.28c0-1.78,1.32-3.3,4-3.3s4,1.54,4,3.3A3,3,0,0,1,23.08,14a3.09,3.09,0,0,1,2.05,3c0,2.22-1.8,3.66-4.33,3.66S16.49,19.24,16.49,17a3.07,3.07,0,0,1,2-3A2.9,2.9,0,0,1,16.79,11.28ZM18.31,17a2.2,2.2,0,0,0,2.49,2.13A2.18,2.18,0,0,0,23.26,17c0-1.37-1-2.11-2.46-2.11S18.31,15.54,18.31,17ZM23,11.51c0-1.25-.85-1.94-2.19-1.94a1.9,1.9,0,0,0-2.17,2,2,2,0,0,0,2.17,1.88A2,2,0,0,0,23,11.51Z"/></g></g></svg>