<svg xmlns="http://www.w3.org/2000/svg" xmlns:xlink="http://www.w3.org/1999/xlink" viewBox="0 0 30.9 30.05"><defs><style>.cls-1{fill:url(#Degradado_sin_nombre_8);}.cls-2{fill:#1d1d1b;}.cls-3{fill:#fff;}</style><linearGradient id="Degradado_sin_nombre_8" x1="15.33" x2="15.33" y2="28.59" gradientUnits="userSpaceOnUse"><stop offset="0" stop-color="#3aaa35"/><stop offset="0.49" stop-color="#38a835"/><stop offset="0.66" stop-color="#33a135"/><stop offset="0.79" stop-color="#299634"/><stop offset="0.89" stop-color="#1a8534"/><stop offset="0.97" stop-color="#086f33"/><stop offset="1" stop-color="#063"/></linearGradient></defs><g id="Capa_2" data-name="Capa 2"><g id="Capa_5" data-name="Capa 5"><rect class="cls-1" x="1.04" width="28.59" height="28.59" rx="2.61"/><rect class="cls-2" x="28.86" y="7.99" width="2.03" height="22.06" rx="1.02"/><rect class="cls-2" x="0.02" y="7.99" width="2.03" height="22.06" rx="1.02"/><rect class="cls-2" x="14.31" y="13.47" width="2.27" height="30.9" rx="1.13" transform="translate(44.37 13.47) rotate(90)"/><rect class="cls-2" x="13.78" y="16.01" width="3.1" height="22.06" rx="1.55" transform="translate(42.38 11.71) rotate(90)"/><path class="cls-3" d="M10.13,8c3.41,0,4.35,2.68,4.35,6.15s-.94,6.22-4.35,6.22-4.34-2.68-4.34-6.22S6.72,8,10.13,8Zm0,1.74c-2.22,0-2.47,2.14-2.47,4.41s.25,4.48,2.47,4.48,2.47-2.09,2.47-4.48S12.35,9.72,10.13,9.72Z"/><path class="cls-3" d="M18.87,17.07a2,2,0,0,0,2.21,1.71c1.52,0,2.29-1,2.29-4.13a3.32,3.32,0,0,1-2.71,1.19,3.65,3.65,0,0,1-3.88-3.9,3.74,3.74,0,0,1,4-4C24,7.92,25,10.07,25,14.07s-.87,6.29-4.06,6.29a3.49,3.49,0,0,1-3.84-3.29Zm4.28-5.13a2.27,2.27,0,1,0-4.54,0A2.17,2.17,0,0,0,21,14.23,2.07,2.07,0,0,0,23.15,11.94Z"/></g></g></svg>