<svg xmlns="http://www.w3.org/2000/svg" xmlns:xlink="http://www.w3.org/1999/xlink" viewBox="0 0 30.9 30.05"><defs><style>.cls-1{fill:url(#Degradado_sin_nombre_8);}.cls-2{fill:#1d1d1b;}.cls-3{fill:#fff;}</style><linearGradient id="Degradado_sin_nombre_8" x1="15.33" x2="15.33" y2="28.59" gradientUnits="userSpaceOnUse"><stop offset="0" stop-color="#3aaa35"/><stop offset="0.49" stop-color="#38a835"/><stop offset="0.66" stop-color="#33a135"/><stop offset="0.79" stop-color="#299634"/><stop offset="0.89" stop-color="#1a8534"/><stop offset="0.97" stop-color="#086f33"/><stop offset="1" stop-color="#063"/></linearGradient></defs><g id="Capa_2" data-name="Capa 2"><g id="Capa_5" data-name="Capa 5"><rect class="cls-1" x="1.04" width="28.59" height="28.59" rx="2.61"/><rect class="cls-2" x="28.86" y="7.99" width="2.03" height="22.06" rx="1.02"/><rect class="cls-2" x="0.02" y="7.99" width="2.03" height="22.06" rx="1.02"/><rect class="cls-2" x="14.31" y="13.47" width="2.27" height="30.9" rx="1.13" transform="translate(44.37 13.47) rotate(90)"/><rect class="cls-2" x="13.78" y="16.01" width="3.1" height="22.06" rx="1.55" transform="translate(42.38 11.71) rotate(90)"/><path class="cls-3" d="M9.5,9.94H7.94V8.2h3.48V20.38H9.5Z"/><path class="cls-3" d="M14.36,11.27c0-1.77,1.32-3.29,4-3.29s4,1.54,4,3.29A3,3,0,0,1,20.64,14a3.08,3.08,0,0,1,2.06,3c0,2.22-1.81,3.66-4.33,3.66S14.06,19.24,14.06,17a3.07,3.07,0,0,1,2-3A2.9,2.9,0,0,1,14.36,11.27ZM15.88,17a2.2,2.2,0,0,0,2.49,2.13A2.18,2.18,0,0,0,20.83,17c0-1.37-1-2.11-2.46-2.11S15.88,15.54,15.88,17Zm4.68-5.45c0-1.25-.85-1.94-2.19-1.94a1.9,1.9,0,0,0-2.17,2,2,2,0,0,0,2.17,1.88A2,2,0,0,0,20.56,11.51Z"/></g></g></svg>