<svg xmlns="http://www.w3.org/2000/svg" xmlns:xlink="http://www.w3.org/1999/xlink" viewBox="0 0 30.9 30.05"><defs><style>.cls-1{fill:url(#Degradado_sin_nombre_8);}.cls-2{fill:#1d1d1b;}.cls-3{fill:#fff;}</style><linearGradient id="Degradado_sin_nombre_8" x1="15.33" x2="15.33" y2="28.59" gradientUnits="userSpaceOnUse"><stop offset="0" stop-color="#3aaa35"/><stop offset="0.49" stop-color="#38a835"/><stop offset="0.66" stop-color="#33a135"/><stop offset="0.79" stop-color="#299634"/><stop offset="0.89" stop-color="#1a8534"/><stop offset="0.97" stop-color="#086f33"/><stop offset="1" stop-color="#063"/></linearGradient></defs><g id="Capa_2" data-name="Capa 2"><g id="Capa_5" data-name="Capa 5"><rect class="cls-1" x="1.04" width="28.59" height="28.59" rx="2.61"/><rect class="cls-2" x="28.86" y="7.99" width="2.03" height="22.06" rx="1.02"/><rect class="cls-2" x="0.02" y="7.99" width="2.03" height="22.06" rx="1.02"/><rect class="cls-2" x="14.31" y="13.47" width="2.27" height="30.9" rx="1.13" transform="translate(44.37 13.47) rotate(90)"/><rect class="cls-2" x="13.78" y="16.01" width="3.1" height="22.06" rx="1.55" transform="translate(42.38 11.71) rotate(90)"/><path class="cls-3" d="M6.07,18.83C9,16.3,12,14.1,12,11.71c0-1.27-.55-2.14-2-2.14s-2.06.94-2.11,2.31H6.06A3.69,3.69,0,0,1,10,8c2.47,0,3.88,1.49,3.88,3.68,0,2.95-3,5.21-5,7h5.29v1.58H6.07Z"/><path class="cls-3" d="M21.68,17.84h-6V16.4l5.62-8h2.3v7.84h1.56v1.65H23.55v2.54H21.68Zm.08-1.65v-5.9l-3.94,5.9Z"/></g></g></svg>