<svg xmlns="http://www.w3.org/2000/svg" xmlns:xlink="http://www.w3.org/1999/xlink" viewBox="0 0 30.9 30.05"><defs><style>.cls-1{fill:url(#Degradado_sin_nombre_8);}.cls-2{fill:#1d1d1b;}.cls-3{fill:#fff;}</style><linearGradient id="Degradado_sin_nombre_8" x1="15.33" x2="15.33" y2="28.59" gradientUnits="userSpaceOnUse"><stop offset="0" stop-color="#3aaa35"/><stop offset="0.49" stop-color="#38a835"/><stop offset="0.66" stop-color="#33a135"/><stop offset="0.79" stop-color="#299634"/><stop offset="0.89" stop-color="#1a8534"/><stop offset="0.97" stop-color="#086f33"/><stop offset="1" stop-color="#063"/></linearGradient></defs><g id="Capa_2" data-name="Capa 2"><g id="Capa_5" data-name="Capa 5"><rect class="cls-1" x="1.04" width="28.59" height="28.59" rx="2.61"/><rect class="cls-2" x="28.86" y="7.99" width="2.03" height="22.06" rx="1.02"/><rect class="cls-2" x="0.02" y="7.99" width="2.03" height="22.06" rx="1.02"/><rect class="cls-2" x="14.31" y="13.47" width="2.27" height="30.9" rx="1.13" transform="translate(44.37 13.47) rotate(90)"/><rect class="cls-2" x="13.78" y="16.01" width="3.1" height="22.06" rx="1.55" transform="translate(42.38 11.71) rotate(90)"/><path class="cls-3" d="M6.14,18.83C9,16.3,12,14.1,12,11.71c0-1.27-.55-2.14-2-2.14S8,10.51,8,11.88H6.12A3.7,3.7,0,0,1,10.05,8c2.47,0,3.88,1.49,3.88,3.68,0,2.95-3,5.21-5,7h5.3v1.58H6.14Z"/><path class="cls-3" d="M23.79,8.17V9.84h-5.6v3.32a3.27,3.27,0,0,1,2.52-1.1c3,0,3.91,2.22,3.91,4.06a3.92,3.92,0,0,1-4.21,4.26c-2.51,0-4-1.39-4.24-3.29H18a2.27,2.27,0,0,0,2.41,1.7c1.63,0,2.37-1.12,2.37-2.62a2.18,2.18,0,0,0-2.37-2.49,2.2,2.2,0,0,0-2.19,1.52H16.43v-7Z"/></g></g></svg>