<svg xmlns="http://www.w3.org/2000/svg" xmlns:xlink="http://www.w3.org/1999/xlink" viewBox="0 0 30.9 30.05"><defs><style>.cls-1{fill:url(#Degradado_sin_nombre_8);}.cls-2{fill:#1d1d1b;}.cls-3{fill:#fff;}</style><linearGradient id="Degradado_sin_nombre_8" x1="15.33" x2="15.33" y2="28.59" gradientUnits="userSpaceOnUse"><stop offset="0" stop-color="#3aaa35"/><stop offset="0.49" stop-color="#38a835"/><stop offset="0.66" stop-color="#33a135"/><stop offset="0.79" stop-color="#299634"/><stop offset="0.89" stop-color="#1a8534"/><stop offset="0.97" stop-color="#086f33"/><stop offset="1" stop-color="#063"/></linearGradient></defs><g id="Capa_2" data-name="Capa 2"><g id="Capa_5" data-name="Capa 5"><rect class="cls-1" x="1.04" width="28.59" height="28.59" rx="2.61"/><rect class="cls-2" x="28.86" y="7.99" width="2.03" height="22.06" rx="1.02"/><rect class="cls-2" x="0.02" y="7.99" width="2.03" height="22.06" rx="1.02"/><rect class="cls-2" x="14.31" y="13.47" width="2.27" height="30.9" rx="1.13" transform="translate(44.37 13.47) rotate(90)"/><rect class="cls-2" x="13.78" y="16.01" width="3.1" height="22.06" rx="1.55" transform="matrix(0, 1, -1, 0, 42.38, 11.71)"/><path class="cls-3" d="M10.11,7.92c2.42,0,3.74,1.4,3.74,3.17A2.86,2.86,0,0,1,12,13.85v.06A3,3,0,0,1,14.07,17c0,1.94-1.37,3.41-3.91,3.41-2.31,0-4.1-1.21-4.21-3.59H7.78a2.16,2.16,0,0,0,2.36,2,1.91,1.91,0,0,0,2.12-2c0-1.61-1-2.16-3-2.16H8.8V13.13h.46c1.72,0,2.77-.52,2.77-1.82,0-1.05-.69-1.76-2-1.76A1.9,1.9,0,0,0,8,11.21H6.11C6.25,9.1,7.89,7.92,10.11,7.92Z"/><path class="cls-3" d="M23.93,8.17V9.84h-5.6v3.32a3.27,3.27,0,0,1,2.52-1.1c3,0,3.91,2.22,3.91,4.06a3.91,3.91,0,0,1-4.21,4.26c-2.5,0-4-1.39-4.24-3.29h1.85a2.27,2.27,0,0,0,2.41,1.7c1.64,0,2.37-1.12,2.37-2.62a2.17,2.17,0,0,0-2.37-2.49,2.2,2.2,0,0,0-2.19,1.52h-1.8v-7Z"/></g></g></svg>