<svg xmlns="http://www.w3.org/2000/svg" xmlns:xlink="http://www.w3.org/1999/xlink" viewBox="0 0 30.9 30.05"><defs><style>.cls-1{fill:url(#Degradado_sin_nombre_8);}.cls-2{fill:#1d1d1b;}.cls-3{fill:#fff;}</style><linearGradient id="Degradado_sin_nombre_8" x1="15.33" x2="15.33" y2="28.59" gradientUnits="userSpaceOnUse"><stop offset="0" stop-color="#3aaa35"/><stop offset="0.49" stop-color="#38a835"/><stop offset="0.66" stop-color="#33a135"/><stop offset="0.79" stop-color="#299634"/><stop offset="0.89" stop-color="#1a8534"/><stop offset="0.97" stop-color="#086f33"/><stop offset="1" stop-color="#063"/></linearGradient></defs><g id="Capa_2" data-name="Capa 2"><g id="Capa_5" data-name="Capa 5"><rect class="cls-1" x="1.04" width="28.59" height="28.59" rx="2.61"/><rect class="cls-2" x="28.86" y="7.99" width="2.03" height="22.06" rx="1.02"/><rect class="cls-2" x="0.02" y="7.99" width="2.03" height="22.06" rx="1.02"/><rect class="cls-2" x="14.31" y="13.47" width="2.27" height="30.9" rx="1.13" transform="translate(44.37 13.47) rotate(90)"/><rect class="cls-2" x="13.78" y="16.01" width="3.1" height="22.06" rx="1.55" transform="translate(42.38 11.71) rotate(90)"/><path class="cls-3" d="M11.89,17.84h-6V16.4l5.61-8h2.31v7.84h1.55v1.65H13.77v2.54H11.89ZM12,16.19v-5.9L8,16.19Z"/><path class="cls-3" d="M20.85,7.92c2.43,0,3.75,1.4,3.75,3.17a2.85,2.85,0,0,1-1.88,2.76v.06A3,3,0,0,1,24.81,17c0,1.94-1.37,3.41-3.91,3.41-2.3,0-4.09-1.21-4.21-3.59h1.84a2.16,2.16,0,0,0,2.36,2,1.91,1.91,0,0,0,2.12-2c0-1.61-1-2.16-3-2.16h-.44V13.13H20c1.72,0,2.78-.52,2.78-1.82,0-1.05-.69-1.76-2-1.76a1.89,1.89,0,0,0-2.07,1.66H16.86C17,9.1,18.63,7.92,20.85,7.92Z"/></g></g></svg>