<svg xmlns="http://www.w3.org/2000/svg" xmlns:xlink="http://www.w3.org/1999/xlink" viewBox="0 0 30.9 30.05"><defs><style>.cls-1{fill:url(#Degradado_sin_nombre_8);}.cls-2{fill:#1d1d1b;}.cls-3{fill:#fff;}</style><linearGradient id="Degradado_sin_nombre_8" x1="15.33" x2="15.33" y2="28.59" gradientUnits="userSpaceOnUse"><stop offset="0" stop-color="#3aaa35"/><stop offset="0.49" stop-color="#38a835"/><stop offset="0.66" stop-color="#33a135"/><stop offset="0.79" stop-color="#299634"/><stop offset="0.89" stop-color="#1a8534"/><stop offset="0.97" stop-color="#086f33"/><stop offset="1" stop-color="#063"/></linearGradient></defs><g id="Capa_2" data-name="Capa 2"><g id="Capa_5" data-name="Capa 5"><rect class="cls-1" x="1.04" width="28.59" height="28.59" rx="2.61"/><rect class="cls-2" x="28.86" y="7.99" width="2.03" height="22.06" rx="1.02"/><rect class="cls-2" x="0.02" y="7.99" width="2.03" height="22.06" rx="1.02"/><rect class="cls-2" x="14.31" y="13.47" width="2.27" height="30.9" rx="1.13" transform="translate(44.37 13.47) rotate(90)"/><rect class="cls-2" x="13.78" y="16.01" width="3.1" height="22.06" rx="1.55" transform="translate(42.38 11.71) rotate(90)"/><path class="cls-3" d="M14,8.17V9.84H8.4v3.32a3.28,3.28,0,0,1,2.53-1.1c3,0,3.91,2.22,3.91,4.06a3.92,3.92,0,0,1-4.21,4.26c-2.51,0-4-1.39-4.25-3.29H8.24a2.26,2.26,0,0,0,2.4,1.7c1.64,0,2.37-1.12,2.37-2.62a2.17,2.17,0,0,0-2.37-2.49A2.2,2.2,0,0,0,8.45,15.2H6.65v-7Z"/><path class="cls-3" d="M20.79,7.92c2.42,0,3.74,1.4,3.74,3.17a2.86,2.86,0,0,1-1.87,2.76v.06A3,3,0,0,1,24.75,17c0,1.94-1.37,3.41-3.91,3.41-2.31,0-4.1-1.21-4.21-3.59h1.83a2.16,2.16,0,0,0,2.36,2,1.91,1.91,0,0,0,2.12-2c0-1.61-1-2.16-3-2.16h-.44V13.13h.45c1.73,0,2.78-.52,2.78-1.82,0-1.05-.69-1.76-2-1.76a1.89,1.89,0,0,0-2.07,1.66H16.79C16.93,9.1,18.56,7.92,20.79,7.92Z"/></g></g></svg>