<svg xmlns="http://www.w3.org/2000/svg" xmlns:xlink="http://www.w3.org/1999/xlink" viewBox="0 0 30.9 30.05"><defs><style>.cls-1{fill:url(#Degradado_sin_nombre_8);}.cls-2{fill:#1d1d1b;}.cls-3{fill:#fff;}</style><linearGradient id="Degradado_sin_nombre_8" x1="15.33" x2="15.33" y2="28.59" gradientUnits="userSpaceOnUse"><stop offset="0" stop-color="#3aaa35"/><stop offset="0.49" stop-color="#38a835"/><stop offset="0.66" stop-color="#33a135"/><stop offset="0.79" stop-color="#299634"/><stop offset="0.89" stop-color="#1a8534"/><stop offset="0.97" stop-color="#086f33"/><stop offset="1" stop-color="#063"/></linearGradient></defs><g id="Capa_2" data-name="Capa 2"><g id="Capa_5" data-name="Capa 5"><rect class="cls-1" x="1.04" width="28.59" height="28.59" rx="2.61"/><rect class="cls-2" x="28.86" y="7.99" width="2.03" height="22.06" rx="1.02"/><rect class="cls-2" x="0.02" y="7.99" width="2.03" height="22.06" rx="1.02"/><rect class="cls-2" x="14.31" y="13.47" width="2.27" height="30.9" rx="1.13" transform="translate(44.37 13.47) rotate(90)"/><rect class="cls-2" x="13.78" y="16.01" width="3.1" height="22.06" rx="1.55" transform="translate(42.38 11.71) rotate(90)"/><path class="cls-3" d="M13.6,8.17V9.84H8v3.32a3.28,3.28,0,0,1,2.53-1.1c3,0,3.9,2.22,3.9,4.06a3.91,3.91,0,0,1-4.21,4.26c-2.5,0-4-1.39-4.24-3.29H7.83a2.27,2.27,0,0,0,2.41,1.7c1.64,0,2.37-1.12,2.37-2.62a2.17,2.17,0,0,0-2.37-2.49A2.2,2.2,0,0,0,8.05,15.2H6.25v-7Z"/><path class="cls-3" d="M23,11a1.83,1.83,0,0,0-2-1.53c-1.72,0-2.6,1.17-2.65,4.36a3.51,3.51,0,0,1,3.07-1.54c2.19,0,3.74,1.47,3.74,4a3.75,3.75,0,0,1-4,4.06c-3.54,0-4.46-2.49-4.46-6.36S17.93,7.9,21,7.9A3.5,3.5,0,0,1,24.73,11Zm-4.47,5.27A2.31,2.31,0,0,0,21,18.79a2.18,2.18,0,0,0,2.27-2.39A2.2,2.2,0,0,0,21,13.91,2.28,2.28,0,0,0,18.51,16.29Z"/></g></g></svg>