<svg xmlns="http://www.w3.org/2000/svg" viewBox="0 0 144.3 54.31"><defs><style>.cls-1{fill:#dadada;}.cls-2{fill:#4e4d4d;}.cls-3{fill:#b4b4b4;}.cls-4{fill:#818181;}.cls-5{fill:#4f4e4e;}.cls-6{fill:#808181;}.cls-7{fill:#b4b4b3;}.cls-8{fill:#b5b5b4;}.cls-9{fill:#4e4e4e;}.cls-10{fill:#828282;}</style></defs><g id="Capa_2" data-name="Capa 2"><g id="Capa_7" data-name="Capa 7"><path class="cls-1" d="M32.92,0h78.53A32.85,32.85,0,0,1,144.3,32.85V54.31a0,0,0,0,1,0,0H0a0,0,0,0,1,0,0V32.92A32.92,32.92,0,0,1,32.92,0Z"/></g><g id="Capa_11" data-name="Capa 11"><path class="cls-2" d="M22.16,6.05A4.8,4.8,0,0,1,27,1.92c1.42,0,2.83,0,4.25,0H81.63a7.21,7.21,0,0,1,4.19.81c1.48,1,2.49,2.95,2.07,4.39a5,5,0,0,1-4.82,3.72c-4.19,0-8.38,0-12.58,0a1.09,1.09,0,0,1-.4,0H52.21c-.42.05-.58-.18-.62-.55a6.17,6.17,0,0,0-.12-.75,1.94,1.94,0,0,0-1.75-1.42,2,2,0,0,0-2.09,2.81c.13.36.42.69.17,1.11a2.06,2.06,0,0,1-1,1.39,5.61,5.61,0,0,1-1.16,0c-.77,0-.82,0-.85-.8A6.92,6.92,0,0,0,42,7.16a7.08,7.08,0,0,0-10.83,3,10.44,10.44,0,0,0-.62,2.75c0,.3-.05.62-.49.6a20.2,20.2,0,0,1-2.2-.06,3.34,3.34,0,0,1-1.07-2.16c-.07-.33-.16-.45-.51-.49a4.62,4.62,0,0,1-2.92-1.56A3.87,3.87,0,0,1,22.16,6.05Z"/><path class="cls-3" d="M41.54,14.79l0,0S41.51,14.77,41.54,14.79Z"/><path class="cls-3" d="M27.86,13.42c.47.29,1,.12,1.48.13,1.21,0,1.21,0,1.28,1.23a8.08,8.08,0,0,0,2.68,3.88,7.33,7.33,0,0,0,8,.54l.24-.13A5.46,5.46,0,0,0,44,16.57h0a3.69,3.69,0,0,0,.84-1.81c0-.18,0-.36,0-.54.07-.5.29-.75.85-.68a1.45,1.45,0,0,0,1.06-.1c-.55,0-1.21.15-1.62-.1s-.12-1-.18-1.48A7.38,7.38,0,0,0,35,6,7.3,7.3,0,0,0,30.4,12.8c0,.55-.19.66-.67.64S28.49,13.42,27.86,13.42Zm12.58.44c-.23-.21,0-.28.19-.34h.07c.43,0,.87,0,1.3,0,1.14,0,1.33-.17.8,1.25-.06.31-.13.7-.43.78s-.46-.35-.67-.57a1,1,0,0,1-.14-.22l0,0h0C41,14.61,40.8,14.19,40.44,13.86Zm-6,2.61c.41-.37.8-.75,1.2-1.13a.76.76,0,0,1,1-.11,1.66,1.66,0,0,0,1.71.14c.9-.55,1.44-.18,2,.47.16.19.35.36.53.54.52.5.52.66-.13,1a5,5,0,0,1-3,.85,5.11,5.11,0,0,1-3.32-1C34.08,17,34.06,16.78,34.41,16.47ZM33,13.54a8.52,8.52,0,0,0,2.14-.06.06.06,0,0,1,.07,0A2.24,2.24,0,0,1,34,14.81c-.06.09-.14.18-.19.27-.18.31-.37.58-.8.47s-.35-.45-.38-.75h0a2.88,2.88,0,0,0-.17-.52C32.15,13.67,32.39,13.53,33,13.54Z"/><path class="cls-4" d="M70.49,10.81c-.36,0-.73-.05-1.1-.05-5.62,0-11.24,0-16.87,0-.59,0-.75-.17-.72-.74a2.06,2.06,0,0,0-1.38-2,2.23,2.23,0,0,0-2.49.48A2.19,2.19,0,0,0,47.39,11c.13.36.42.66.41,1.08.36-.18.52.23.8.27a2.08,2.08,0,0,1,.5-1.65c0-.11,0-.23,0-.34,0-.3,0-.56.41-.58s.52.2.55.55c0,.14,0,.27,0,.41.33.4.32,1,.78,1.33a.73.73,0,0,0,.54-.48c.23-.67.73-.68,1.31-.68H70C70.14,10.89,70.33,10.94,70.49,10.81Z"/><path class="cls-5" d="M50.85,12c-.2-.48-.18-1.08-.72-1.39-.36-.47-.73-.46-1.1,0-.76.61-.78.71-.43,1.68C49.37,13,49.92,13,50.85,12Z"/><path class="cls-6" d="M64.33,10.51c1.89.08,4.27.06,6.63,0,3.24,0,6.49,0,9.74,0,.6,0,.74-.16.63-.76a7.73,7.73,0,0,0-.76-2.7,1.46,1.46,0,0,0-1.36-.85q-10.26,0-20.52,0c-.93,0-1.13.72-1.44,1.26a7.54,7.54,0,0,0-.6,2.6c-.07.45.25.45.57.45Z"/><path class="cls-7" d="M27.82,6.07c.57,0,1.15,0,1.73,0s.95-.35.95-1.29c0-.76-.25-1.05-.95-1.06-1.14,0-2.29,0-3.43,0-.75,0-.93.28-.92,1.22s.28,1.12,1,1.12Z"/><path class="cls-8" d="M82.73,6.06c.57,0,1.15,0,1.72,0s1-.38,1-.88c0-1.19-.18-1.43-1-1.45-1.16,0-2.32,0-3.48,0-.66,0-.85.41-.87,1,0,.92.16,1.28.81,1.33s1.2,0,1.8,0Z"/><path class="cls-5" d="M35.18,13.57l0,0a.32.32,0,0,0,0-.09Z"/><path class="cls-5" d="M32.77,13.43c-.31,0-.5,0-.52-.44a5.42,5.42,0,0,1,4.28-5.5c.31-.07.47,0,.46.37,0,.59,0,1.19,0,1.79a.8.8,0,0,1-.49.86,2.47,2.47,0,0,0-1.31,3,.06.06,0,0,0-.07,0h0A18.44,18.44,0,0,0,32.77,13.43Z"/><path class="cls-5" d="M35.16,13.55l0-.07a.06.06,0,0,1,.07,0A.32.32,0,0,1,35.16,13.55Z"/><path class="cls-9" d="M38.48,8.8a5.73,5.73,0,0,0,0-.83c0-.44.13-.56.57-.46a5.57,5.57,0,0,1,4.19,5.32c0,.51-.2.62-.65.61a5,5,0,0,0-1.88.08h-.07a.43.43,0,0,1-.27-.53,2,2,0,0,0-1-2.17A1.75,1.75,0,0,1,38.48,8.8Z"/><path class="cls-9" d="M40.66,13.57l0-.05h.07Z"/><path class="cls-10" d="M39.35,12.88A1.53,1.53,0,0,0,37.7,11.2a1.59,1.59,0,0,0-1.65,1.5,1.72,1.72,0,0,0,1.76,1.8A1.74,1.74,0,0,0,39.35,12.88Z"/><path class="cls-3" d="M49,10.64a1.13,1.13,0,0,1,1.1,0c.15-.46.28-.94-.37-1.1-.25-.06-.59-.12-.75.15A.78.78,0,0,0,49,10.64Z"/></g></g></svg>