<svg xmlns="http://www.w3.org/2000/svg" viewBox="0 0 144.3 20.31"><defs><style>.cls-1{fill:#a9a9a9;}.cls-2{fill:#4e4d4d;}.cls-3{fill:#b4b4b4;}.cls-4{fill:#191919;}.cls-5{fill:#818181;}.cls-6{fill:#4f4e4e;}.cls-7{fill:#0b0c0c;}.cls-8{fill:#b4b4b3;}.cls-9{fill:#b5b5b4;}.cls-10{fill:#4e4e4e;}.cls-11{fill:#828282;}</style></defs><g id="Capa_2" data-name="Capa 2"><g id="Capa_7" data-name="Capa 7"><path class="cls-1" d="M19.29,0H125A19.29,19.29,0,0,1,144.3,19.29v0a0,0,0,0,1,0,0H0a0,0,0,0,1,0,0v0A19.29,19.29,0,0,1,19.29,0Z"/></g><g id="Capa_11" data-name="Capa 11"><path class="cls-2" d="M15.49,6.22A4.78,4.78,0,0,1,20.28,2.1c1.41,0,2.83,0,4.25,0H75a7.16,7.16,0,0,1,4.18.81c1.48,1,2.5,2.95,2.08,4.4A5,5,0,0,1,76.4,11c-4.19,0-8.39,0-12.58,0a.94.94,0,0,1-.41,0H45.54c-.42.05-.58-.18-.63-.55a4.85,4.85,0,0,0-.11-.75A1.94,1.94,0,0,0,43,8.3,2,2,0,0,0,41,11.11c.13.36.41.7.17,1.11a2,2,0,0,1-1,1.39,6.54,6.54,0,0,1-1.17,0c-.76,0-.81,0-.84-.81a6.9,6.9,0,0,0-2.82-5.51,7.08,7.08,0,0,0-10.82,3,10.06,10.06,0,0,0-.62,2.75c0,.3-.05.62-.49.6a18,18,0,0,1-2.2-.06,3.3,3.3,0,0,1-1.07-2.16c-.07-.32-.17-.44-.52-.49a4.55,4.55,0,0,1-2.91-1.56A3.82,3.82,0,0,1,15.49,6.22Z"/><path class="cls-3" d="M34.87,15h0Z"/><path class="cls-4" d="M21.19,13.59c.47.29,1,.12,1.48.13,1.2,0,1.2,0,1.28,1.24a8,8,0,0,0,2.68,3.87,7.32,7.32,0,0,0,8,.54l.25-.13a5.37,5.37,0,0,0,2.47-2.49h0a3.59,3.59,0,0,0,.83-1.8c0-.19,0-.37.05-.55.07-.49.29-.74.85-.67a1.41,1.41,0,0,0,1.06-.11c-.55,0-1.22.15-1.62-.1s-.12-1-.19-1.48a7.38,7.38,0,0,0-10-5.83A7.29,7.29,0,0,0,23.73,13c0,.54-.19.66-.68.63S21.81,13.59,21.19,13.59ZM33.77,14c-.23-.21,0-.28.18-.34H34c.43,0,.86.05,1.3,0,1.14,0,1.33-.17.8,1.25-.06.31-.13.7-.43.78s-.46-.35-.67-.57a1.7,1.7,0,0,1-.15-.22l0,0,0,0C34.3,14.79,34.13,14.36,33.77,14Zm-6,2.61c.41-.37.81-.75,1.21-1.13a.75.75,0,0,1,1-.11,1.68,1.68,0,0,0,1.72.14c.9-.55,1.44-.18,2,.47.17.19.36.36.54.54.51.5.52.67-.14,1a5,5,0,0,1-2.95.86,5.19,5.19,0,0,1-3.32-1C27.4,17.19,27.39,17,27.73,16.64Zm-1.42-2.92a9.48,9.48,0,0,0,2.13-.06.08.08,0,0,1,.08,0A2.26,2.26,0,0,1,27.28,15a2.83,2.83,0,0,0-.2.28c-.17.3-.36.57-.79.46s-.35-.45-.38-.75h0c-.06-.17-.1-.35-.17-.52C25.48,13.85,25.72,13.7,26.31,13.72Z"/><path class="cls-5" d="M63.82,11c-.37,0-.73,0-1.1,0-5.62,0-11.25,0-16.87,0-.59,0-.76-.17-.73-.74a2.05,2.05,0,0,0-1.38-2,2.3,2.3,0,0,0-3,3c.13.36.42.66.41,1.07.36-.17.52.24.8.27a2,2,0,0,1,.5-1.65c0-.11,0-.22,0-.34,0-.3,0-.56.41-.58s.52.21.55.55a2.75,2.75,0,0,0,0,.41c.33.4.31,1,.77,1.34a.78.78,0,0,0,.55-.49c.23-.66.73-.68,1.31-.68H63.29C63.47,11.06,63.66,11.11,63.82,11Z"/><path class="cls-6" d="M44.17,12.22c-.19-.49-.17-1.09-.71-1.4-.37-.46-.73-.45-1.1,0-.76.6-.79.7-.43,1.67C42.7,13.22,43.25,13.15,44.17,12.22Z"/><path class="cls-7" d="M57.65,10.68c1.9.09,4.27.07,6.64.05,3.24,0,6.49,0,9.73,0,.61,0,.74-.16.64-.76a7.83,7.83,0,0,0-.76-2.69,1.45,1.45,0,0,0-1.36-.86q-10.26,0-20.52,0c-.94,0-1.14.71-1.44,1.25a7.16,7.16,0,0,0-.6,2.6c-.08.46.24.45.56.45Z"/><path class="cls-8" d="M21.15,6.24c.57,0,1.15,0,1.72,0,.73,0,1-.35.95-1.29,0-.76-.25-1.05-.94-1.06-1.15,0-2.29,0-3.44,0-.74,0-.93.28-.91,1.22s.28,1.12,1,1.13Z"/><path class="cls-9" d="M76.05,6.23c.58,0,1.15,0,1.73,0s1-.38,1-.87c0-1.2-.17-1.44-1-1.46-1.17,0-2.33,0-3.49,0-.65,0-.85.41-.86,1,0,.92.16,1.28.81,1.33s1.2,0,1.79,0Z"/><path class="cls-6" d="M28.51,13.74l0,0,0-.09Z"/><path class="cls-6" d="M26.1,13.6c-.31,0-.5,0-.52-.44a5.42,5.42,0,0,1,4.27-5.5c.31-.07.48,0,.47.37a17.81,17.81,0,0,0,0,1.79.81.81,0,0,1-.49.86,2.46,2.46,0,0,0-1.31,3,.08.08,0,0,0-.08,0h0A18.29,18.29,0,0,0,26.1,13.6Z"/><path class="cls-6" d="M28.49,13.72l0-.06a.08.08,0,0,1,.08,0Z"/><path class="cls-10" d="M31.8,9a4.6,4.6,0,0,0,0-.83c0-.44.12-.56.56-.46A5.58,5.58,0,0,1,36.56,13c0,.52-.21.62-.66.61a4.91,4.91,0,0,0-1.87.08H34a.43.43,0,0,1-.26-.53,2,2,0,0,0-1-2.16A1.78,1.78,0,0,1,31.8,9Z"/><path class="cls-10" d="M34,13.74l0-.05H34Z"/><path class="cls-11" d="M32.68,13.05A1.54,1.54,0,0,0,31,11.37a1.6,1.6,0,0,0-1.64,1.5,1.65,1.65,0,1,0,3.3.18Z"/><path class="cls-3" d="M42.36,10.82a1.11,1.11,0,0,1,1.1,0c.15-.46.27-.93-.38-1.1-.24-.06-.58-.11-.75.16A.78.78,0,0,0,42.36,10.82Z"/></g></g></svg>