<svg xmlns="http://www.w3.org/2000/svg" viewBox="0 0 31.76 23.13"><g id="Capa_2" data-name="Capa 2"><g id="Capa_10" data-name="Capa 10"><path d="M14.29,13.87c-1.45,0-2.81,0-4.17,0-.7,0-1-.22-.93-.93,0-1.34,0-2.67,0-4.14h-3C3.66,8.79,4,9.1,4,6.61c0-.93,0-1.86,0-2.83H.05A3.25,3.25,0,0,0,.92,6.83q7.76,7.56,15.32,15.32a3,3,0,0,0,3.09.88V19c-1.32,0-2.65-.05-4,0-.89.05-1.13-.28-1.09-1.12C14.34,16.58,14.29,15.3,14.29,13.87Z"/><path d="M15.2,17.69c.34-.15.59-.25.84-.38,3.31-1.69,6.61-3.39,9.92-5.06a1,1,0,0,0,.69-1.09c-.06-.84,0-1.69,0-2.64l-4.32,2c-2.19,1-4.39,2-6.57,3a1.07,1.07,0,0,0-.51.78C15.17,15.39,15.2,16.49,15.2,17.69Z"/><path d="M21.58,4.26c-3.75,1.44-7.37,2.83-11,4.24a.77.77,0,0,0-.45.5c0,1.18,0,2.36,0,3.68L15,10.44c2-.89,3.91-1.79,5.88-2.66a.93.93,0,0,0,.68-1C21.54,6,21.58,5.19,21.58,4.26Z"/><path d="M31.74,13c-3.14,1.6-6.11,3.27-9.21,4.65-1.75.77-2.62,1.74-2.22,3.67a8.64,8.64,0,0,1,0,1.45c.33-.18.58-.29.81-.43q5-2.93,10-5.83a1,1,0,0,0,.62-1.06C31.71,14.65,31.74,13.88,31.74,13Z"/><path d="M5,3.61v4c1-.38,1.94-.75,2.89-1.1,2.62-1,5.24-2,7.87-3a.85.85,0,0,0,.67-1c-.05-.7,0-1.42,0-2.29Z"/><path d="M30.05,12.73a7.08,7.08,0,0,0-5,1c-2.45,1.37-5,2.58-7.47,3.86l-.84.46a7.89,7.89,0,0,0,4.42-.7c2.71-1.52,5.53-2.87,8.3-4.29C29.66,13,29.82,12.86,30.05,12.73Z"/><path d="M24.85,8.24a8,8,0,0,0-4.11.61c-2.61,1.31-5.3,2.45-7.95,3.66-.22.1-.43.22-.81.42a8.07,8.07,0,0,0,4-.58c2.63-1.32,5.34-2.47,8-3.69C24.26,8.56,24.47,8.44,24.85,8.24Z"/><path d="M19,3.93a18.32,18.32,0,0,0-3,.53c-2.89,1-5.75,2.16-8.61,3.25L7.46,8a22.53,22.53,0,0,0,3.31-.65c2.79-1,5.53-2.09,8.29-3.15Z"/><path d="M13.09,0C9.73.45,6.61,1.82,3.34,2.72a4.88,4.88,0,0,0,1.27,0c2.85-.8,5.68-1.64,8.52-2.47Z"/></g></g></svg>