<svg xmlns="http://www.w3.org/2000/svg" xmlns:xlink="http://www.w3.org/1999/xlink" viewBox="0 0 30.9 34.05"><defs><style>.cls-1{fill:url(#Degradado_sin_nombre_118);}.cls-2{fill:#1d1d1b;}.cls-3{fill:#132830;}.cls-4{fill:#41484f;}.cls-5{fill:#42494e;}.cls-6{fill:#485055;}.cls-7{fill:#6e431b;}.cls-8{fill:#e4e0d9;}.cls-9{fill:#e8c99c;}.cls-10{fill:#f0c895;}.cls-11{fill:#14272d;}.cls-12{fill:#ceb697;}</style><linearGradient id="Degradado_sin_nombre_118" x1="15.33" y1="4" x2="15.33" y2="32.59" gradientUnits="userSpaceOnUse"><stop offset="0.01" stop-color="#e5232c"/><stop offset="0.43" stop-color="#e3232c"/><stop offset="0.59" stop-color="#dc222a"/><stop offset="0.7" stop-color="#d12127"/><stop offset="0.79" stop-color="#c01e24"/><stop offset="0.86" stop-color="#aa1c1f"/><stop offset="0.93" stop-color="#8e1918"/><stop offset="0.99" stop-color="#6f1511"/><stop offset="1" stop-color="#691410"/></linearGradient></defs><g id="Capa_2" data-name="Capa 2"><g id="Capa_5" data-name="Capa 5"><rect class="cls-1" x="1.04" y="4" width="28.59" height="28.59" rx="2.61"/><rect class="cls-2" x="28.86" y="11.99" width="2.03" height="22.06" rx="1.02"/><rect class="cls-2" x="0.02" y="11.99" width="2.03" height="22.06" rx="1.02"/><rect class="cls-2" x="14.31" y="17.47" width="2.27" height="30.9" rx="1.13" transform="translate(48.37 17.47) rotate(90)"/><rect class="cls-2" x="13.78" y="20.01" width="3.1" height="22.06" rx="1.55" transform="translate(46.38 15.71) rotate(90)"/><path class="cls-3" d="M8.29,6.5a27.55,27.55,0,0,1,3.81-.41c3,.06,5.53-.73,7.09-3.52,1.12-.2,2.27-.45,3,.79l1.27,1.57a1.87,1.87,0,0,1,1.67,1.7c.08.71-.42.79-.9.92a1.06,1.06,0,0,1-.34.16c-.36,2.3.06,4.71-1,6.89a2.2,2.2,0,0,1-3.16-1.11,5.27,5.27,0,0,1-.55-1.32,2,2,0,0,0-.32-.7,12.15,12.15,0,0,0-7.13-.64,4.27,4.27,0,0,0-2.28.95c-.87.89-1.59,2-3.09,1.89a4.1,4.1,0,0,1-1.57-3.29l0-1.17A17,17,0,0,0,8.29,6.5Z"/><path class="cls-4" d="M6.34,13.48a4.39,4.39,0,0,0,2.66-2,4.26,4.26,0,0,1,1.37,2.26c-.45,1.21-1.74,1.79-2.22,3-.2.5-.67,1-.32,1.53.25.39.67.05,1,0a8.82,8.82,0,0,1,4.36,0,.63.63,0,0,1,.28.47A8.78,8.78,0,0,0,11,27.43c-3.21.43-4.71-1.68-6-4.07C4.61,22.7,4.35,22,4,21.29a7.68,7.68,0,0,1,0-4.67C4.41,15.28,4.8,14,6.34,13.48Z"/><path class="cls-4" d="M20.05,13.09c.4,1.32,1.61,1.29,2.64,1.56A3.83,3.83,0,0,1,26.51,17c1.2,2.06.72,4.13,0,6.2-1.45,2.29-2.83,4.68-6.17,4.21a1.17,1.17,0,0,1-.13-.94c.93-2.78,0-5-2-7,.36-2,2.07-1.13,3.36-1.51-.55-1.17-2.19-1.08-2.61-2.27A3.92,3.92,0,0,1,20.05,13.09Z"/><path class="cls-5" d="M24.25,7.55c1.27-1.33,0-1.89-.77-2.62,1.06.08,1-.63,1-1.38.06-1.17-.1-2.48,1.48-3.21.65,2.17.55,4.35.93,6.45.1.58-.21.84-.75.84S24.89,7.58,24.25,7.55Z"/><path class="cls-6" d="M22.21,3.36c-.89-.71-2.12-.14-3-.79A1.92,1.92,0,0,1,19.58.94c.29-.51.69-1,1.34-.93a1.32,1.32,0,0,1,1,1.25C22.06,2,22.13,2.66,22.21,3.36Z"/><path class="cls-3" d="M8.29,6.5C7.64,8.06,6.7,9.25,4.8,9.21,5.11,7.2,6.35,6.4,8.29,6.5Z"/><path class="cls-7" d="M18.47,19.24c2.91,2.2,3.21,5,1.91,8.2-1.34,1-2.56,2.1-4.42,2.17a6.94,6.94,0,0,1-5-2.18c-1.49-3.82-1-5.84,2.2-8.47,1.47-1.18,3.06-1,4.7-.44C18.18,18.67,18.45,18.85,18.47,19.24Z"/><path class="cls-8" d="M19.42,11a.86.86,0,0,1,0,.9c-.63.58-1.59.56-2.17,1.16-.16.17-1.53-.25-.49.83.38.39-.41.68-.81.72a8.81,8.81,0,0,1-3.43-.1,1.07,1.07,0,0,1-.57-.63,7.54,7.54,0,0,0-.49-.83c-1-1.58-.64-2.07,1.21-2.35C15,10.39,17.17,11.08,19.42,11Z"/><path class="cls-9" d="M19.42,11l-6.57.12c-.56,0-1.33-.22-1.55.44s.27,1.2.95,1.46c.87.33.31.56-.06.81a1.33,1.33,0,0,1-1.94,0A3.37,3.37,0,0,1,9,11.53a2.15,2.15,0,0,1,2.07-1.11c.89-.06,1.78-.3,2.66-.28,1,0,2.27-1.26,3.18.56C17.19,11.26,18.61,10.51,19.42,11Z"/><path class="cls-10" d="M12.68,14.38h3.77l.2-.44-1.76-1.08.24-.6c1.72,1.83,2.73-1.13,4.3-.32l.62,1.15a3.8,3.8,0,0,1-.93,2.69,37.51,37.51,0,0,0-5.69-.72C13.08,15.06,12.65,14.92,12.68,14.38Z"/><path class="cls-11" d="M12.68,14.38a2.82,2.82,0,0,0,1.85.17,6,6,0,0,1,4.59,1.23c.92.47,1.86.91,2.75,1.43.36.21.86.57.62,1.06s-.67.49-1.18.4c-1-.17-2-.4-2.84.57l-.31-.3c-1.53-1.14-3.19-.76-4.85-.39l-4.54,0a1.73,1.73,0,0,1-.93-1.84c.32-1.36,1.43-2,2.41-2.83l1.94,0Z"/><path class="cls-12" d="M13.31,18.55a1.6,1.6,0,0,0,.53-.22c1.73-1.76,3-.5,4.32.61a12.33,12.33,0,0,0-5,0C13.22,18.82,13.27,18.68,13.31,18.55Z"/></g></g></svg>