<svg xmlns="http://www.w3.org/2000/svg" xmlns:xlink="http://www.w3.org/1999/xlink" viewBox="0 0 30.9 33.74"><defs><style>.cls-1{fill:url(#Degradado_sin_nombre_118);}.cls-2{fill:#1d1d1b;}.cls-3{fill:#f0a022;}.cls-4{fill:#2a373d;}.cls-5{fill:#43494e;}.cls-6{fill:#42484d;}.cls-7{fill:#e3b777;}.cls-8{fill:#ebcba0;}.cls-9{fill:#14282f;}.cls-10{fill:#f7f6f1;}.cls-11{fill:#efc796;}</style><linearGradient id="Degradado_sin_nombre_118" x1="15.33" y1="3.69" x2="15.33" y2="32.28" gradientUnits="userSpaceOnUse"><stop offset="0.01" stop-color="#e5232c"/><stop offset="0.43" stop-color="#e3232c"/><stop offset="0.59" stop-color="#dc222a"/><stop offset="0.7" stop-color="#d12127"/><stop offset="0.79" stop-color="#c01e24"/><stop offset="0.86" stop-color="#aa1c1f"/><stop offset="0.93" stop-color="#8e1918"/><stop offset="0.99" stop-color="#6f1511"/><stop offset="1" stop-color="#691410"/></linearGradient></defs><g id="Capa_2" data-name="Capa 2"><g id="Capa_5" data-name="Capa 5"><rect class="cls-1" x="1.04" y="3.69" width="28.59" height="28.59" rx="2.61"/><rect class="cls-2" x="28.86" y="11.68" width="2.03" height="22.06" rx="1.02"/><rect class="cls-2" x="0.02" y="11.68" width="2.03" height="22.06" rx="1.02"/><rect class="cls-2" x="14.31" y="17.16" width="2.27" height="30.9" rx="1.13" transform="translate(48.06 17.16) rotate(90)"/><rect class="cls-2" x="13.78" y="19.7" width="3.1" height="22.06" rx="1.55" transform="translate(46.07 15.4) rotate(90)"/><path class="cls-3" d="M18.27,26.59a1.19,1.19,0,0,0-.88,1.2,3.78,3.78,0,0,1-5.92,2.73c1.85-1.05,2.5-2.68,1.57-3.94a3,3,0,0,1-2.19-3.11,4.52,4.52,0,0,1,1.65-4.19C14.38,17.6,16.36,18,18.39,19a4.88,4.88,0,0,1,2,4.45A4.33,4.33,0,0,1,18.27,26.59Z"/><path class="cls-4" d="M16.18,7.35,18,9.78a.45.45,0,0,1-.37.56,24.66,24.66,0,0,1-6.07.12c-.6-1.09.07-2.28-.27-3.39C10.05,4.73,8.28,2.68,7.36,0A2.5,2.5,0,0,1,9.07,1.09,31.26,31.26,0,0,0,12.36,4c1.3,1,1.85.94,2.64-.51a3.44,3.44,0,0,1,.8-1C15.87,4.11,15.51,5.79,16.18,7.35Z"/><path class="cls-5" d="M21.3,23.12l-1.17.49a5.71,5.71,0,0,0-1.85-4.37c-.61-.71-1.83-.55-2.26-1.53,1.09-2.31,2.66-2.57,4.49-.77.19.22.26.53.48.74.18-.86.18-.86-.42-1.5-.41-.86-1.55-1-1.89-1.91,0-.94.25-1.91-.28-2.79-1-.64-2.16-.24-3.24-.33-.75-.06-1.51,0-2.27-.05a1.26,1.26,0,0,1-1.34-.32c-.37-.22-.26-.46,0-.72,1.23.69,2.47-.16,3.74,0A3.41,3.41,0,0,0,18,9.78c1.83.33,1.51,2.4,2.67,3.29.26.21.36.62.62.83,3,2.49,3.14,6.12.34,8.89Z"/><path class="cls-6" d="M11.1,23.5l-.79-.25a8.89,8.89,0,0,1-3-6.39,5.15,5.15,0,0,1,3.92-5.24,8.93,8.93,0,0,1,1.89.92c-.05.78-.78.59-1.21.83a4.82,4.82,0,0,0-1.3,1.16,2.77,2.77,0,0,0-.5,3.15c.49-.06.5-.52.77-.71,2.16-1.79,2.88-1.72,4.41.41.07.6-.38.73-.8.9a5.2,5.2,0,0,0-1.81,1.23A4.86,4.86,0,0,0,11.1,23.5Z"/><path class="cls-7" d="M12.69,19.51c.37-1.24,1.89-1.12,2.49-2.1.54-.61.67-.57,1,.32.68.52,1.67.63,2.09,1.51C16.38,18.42,14.49,18,12.69,19.51Z"/><path class="cls-8" d="M13.06,12.62a1.71,1.71,0,0,1-1.82-1c.11-.28.21-.56.31-.84.61-.4,1,.3,1.46.34.35.58,2.17.33,1,1.78A.86.86,0,0,1,13.06,12.62Z"/><path class="cls-9" d="M13.06,12.62c.35-.16.62.09.91.19h.23c1.77-.18,3.44-.08,4.61,1.53.61.66,2.05.5,1.93,1.91.23.45.06.72-.39.86-1.92-1.54-2.63-1.43-4.16.61-.33-.14-.41-1.07-1-.32a9.87,9.87,0,0,1-.8-.65c-.85-.85-1.7-1.18-2.59,0a1,1,0,0,1-.77.39c-1.24-.63-1.06-1.63-.71-2.68A3.6,3.6,0,0,1,13.06,12.62Z"/><path class="cls-10" d="M14,12.81c.18-.36.49-.79-.24-.85-.57-.05-.52-.53-.72-.84,0-.5.35-.39.6-.4h4.52c.41,0,1-.12.65.68a4.79,4.79,0,0,1-4.69,1.51A.13.13,0,0,1,14,12.81Z"/><path class="cls-11" d="M14.09,12.91c1.83.32,3.14-1,4.69-1.51a2.76,2.76,0,0,1,0,2.95A9.43,9.43,0,0,0,14.09,12.91Z"/></g></g></svg>